[STREAM]
index=0
codec_name=mp3
codec_long_name=MP3 (MPEG audio layer 3)
profile=unknown
codec_type=audio
codec_time_base=1/44100
codec_tag_string=[0][0][0][0]
codec_tag=0x0000
sample_fmt=fltp
sample_rate=44100
channels=1
channel_layout=mono
bits_per_sample=0
id=N/A
r_frame_rate=0/0
avg_frame_rate=0/0
time_base=1/14112000
start_pts=353600
start_time=0.025057
duration_ts=43130880
duration=3.056327
bit_rate=96000
max_bit_rate=N/A
bits_per_raw_sample=N/A
nb_frames=N/A
nb_read_frames=N/A
nb_read_packets=N/A
DISPOSITION:default=0
DISPOSITION:dub=0
DISPOSITION:original=0
DISPOSITION:comment=0
DISPOSITION:lyrics=0
DISPOSITION:karaoke=0
DISPOSITION:forced=0
DISPOSITION:hearing_impaired=0
DISPOSITION:visual_impaired=0
DISPOSITION:clean_effects=0
DISPOSITION:attached_pic=0
DISPOSITION:timed_thumbnails=0
TAG:encoder=LAME3.100
[/STREAM]
[STREAM]
index=0
codec_name=mp3
codec_long_name=MP3 (MPEG audio layer 3)
profile=unknown
codec_type=audio
codec_time_base=1/44100
codec_tag_string=[0][0][0][0]
codec_tag=0x0000
sample_fmt=fltp
sample_rate=44100
channels=1
channel_layout=mono
bits_per_sample=0
id=N/A
r_frame_rate=0/0
avg_frame_rate=0/0
time_base=1/14112000
start_pts=353600
start_time=0.025057
duration_ts=21381120
duration=1.515102
bit_rate=96000
max_bit_rate=N/A
bits_per_raw_sample=N/A
nb_frames=N/A
nb_read_frames=N/A
nb_read_packets=N/A
DISPOSITION:default=0
DISPOSITION:dub=0
DISPOSITION:original=0
DISPOSITION:comment=0
DISPOSITION:lyrics=0
DISPOSITION:karaoke=0
DISPOSITION:forced=0
DISPOSITION:hearing_impaired=0
DISPOSITION:visual_impaired=0
DISPOSITION:clean_effects=0
DISPOSITION:attached_pic=0
DISPOSITION:timed_thumbnails=0
TAG:encoder=LAME3.100
[/STREAM]
[STREAM]
index=0
codec_name=mp3
codec_long_name=MP3 (MPEG audio layer 3)
profile=unknown
codec_type=audio
codec_time_base=1/44100
codec_tag_string=[0][0][0][0]
codec_tag=0x0000
sample_fmt=fltp
sample_rate=44100
channels=1
channel_layout=mono
bits_per_sample=0
id=N/A
r_frame_rate=0/0
avg_frame_rate=0/0
time_base=1/14112000
start_pts=353600
start_time=0.025057
duration_ts=39075840
duration=2.768980
bit_rate=96000
max_bit_rate=N/A
bits_per_raw_sample=N/A
nb_frames=N/A
nb_read_frames=N/A
nb_read_packets=N/A
DISPOSITION:default=0
DISPOSITION:dub=0
DISPOSITION:original=0
DISPOSITION:comment=0
DISPOSITION:lyrics=0
DISPOSITION:karaoke=0
DISPOSITION:forced=0
DISPOSITION:hearing_impaired=0
DISPOSITION:visual_impaired=0
DISPOSITION:clean_effects=0
DISPOSITION:attached_pic=0
DISPOSITION:timed_thumbnails=0
TAG:encoder=LAME3.100
[/STREAM]
[STREAM]
index=0
codec_name=mp3
codec_long_name=MP3 (MPEG audio layer 3)
profile=unknown
codec_type=audio
codec_time_base=1/44100
codec_tag_string=[0][0][0][0]
codec_tag=0x0000
sample_fmt=fltp
sample_rate=44100
channels=1
channel_layout=mono
bits_per_sample=0
id=N/A
r_frame_rate=0/0
avg_frame_rate=0/0
time_base=1/14112000
start_pts=353600
start_time=0.025057
duration_ts=30228480
duration=2.142041
bit_rate=96000
max_bit_rate=N/A
bits_per_raw_sample=N/A
nb_frames=N/A
nb_read_frames=N/A
nb_read_packets=N/A
DISPOSITION:default=0
DISPOSITION:dub=0
DISPOSITION:original=0
DISPOSITION:comment=0
DISPOSITION:lyrics=0
DISPOSITION:karaoke=0
DISPOSITION:forced=0
DISPOSITION:hearing_impaired=0
DISPOSITION:visual_impaired=0
DISPOSITION:clean_effects=0
DISPOSITION:attached_pic=0
DISPOSITION:timed_thumbnails=0
TAG:encoder=LAME3.100
[/STREAM]
[STREAM]
index=0
codec_name=mp3
codec_long_name=MP3 (MPEG audio layer 3)
profile=unknown
codec_type=audio
codec_time_base=1/22050
codec_tag_string=[0][0][0][0]
codec_tag=0x0000
sample_fmt=fltp
sample_rate=22050
channels=1
channel_layout=mono
bits_per_sample=0
id=N/A
r_frame_rate=0/0
avg_frame_rate=0/0
time_base=1/14112000
start_pts=707200
start_time=0.050113
duration_ts=220446720
duration=15.621224
bit_rate=96000
max_bit_rate=N/A
bits_per_raw_sample=N/A
nb_frames=N/A
nb_read_frames=N/A
nb_read_packets=N/A
DISPOSITION:default=0
DISPOSITION:dub=0
DISPOSITION:original=0
DISPOSITION:comment=0
DISPOSITION:lyrics=0
DISPOSITION:karaoke=0
DISPOSITION:forced=0
DISPOSITION:hearing_impaired=0
DISPOSITION:visual_impaired=0
DISPOSITION:clean_effects=0
DISPOSITION:attached_pic=0
DISPOSITION:timed_thumbnails=0
TAG:encoder=LAME3.100
[/STREAM]
[STREAM]
index=0
codec_name=mp3
codec_long_name=MP3 (MPEG audio layer 3)
profile=unknown
codec_type=audio
codec_time_base=1/44100
codec_tag_string=[0][0][0][0]
codec_tag=0x0000
sample_fmt=fltp
sample_rate=44100
channels=1
channel_layout=mono
bits_per_sample=0
id=N/A
r_frame_rate=0/0
avg_frame_rate=0/0
time_base=1/14112000
start_pts=353600
start_time=0.025057
duration_ts=26542080
duration=1.880816
bit_rate=96000
max_bit_rate=N/A
bits_per_raw_sample=N/A
nb_frames=N/A
nb_read_frames=N/A
nb_read_packets=N/A
DISPOSITION:default=0
DISPOSITION:dub=0
DISPOSITION:original=0
DISPOSITION:comment=0
DISPOSITION:lyrics=0
DISPOSITION:karaoke=0
DISPOSITION:forced=0
DISPOSITION:hearing_impaired=0
DISPOSITION:visual_impaired=0
DISPOSITION:clean_effects=0
DISPOSITION:attached_pic=0
DISPOSITION:timed_thumbnails=0
TAG:encoder=LAME3.100
[/STREAM]
[STREAM]
index=0
codec_name=mp3
codec_long_name=MP3 (MPEG audio layer 3)
profile=unknown
codec_type=audio
codec_time_base=1/44100
codec_tag_string=[0][0][0][0]
codec_tag=0x0000
sample_fmt=fltp
sample_rate=44100
channels=1
channel_layout=mono
bits_per_sample=0
id=N/A
r_frame_rate=0/0
avg_frame_rate=0/0
time_base=1/14112000
start_pts=353600
start_time=0.025057
duration_ts=23592960
duration=1.671837
bit_rate=96000
max_bit_rate=N/A
bits_per_raw_sample=N/A
nb_frames=N/A
nb_read_frames=N/A
nb_read_packets=N/A
DISPOSITION:default=0
DISPOSITION:dub=0
DISPOSITION:original=0
DISPOSITION:comment=0
DISPOSITION:lyrics=0
DISPOSITION:karaoke=0
DISPOSITION:forced=0
DISPOSITION:hearing_impaired=0
DISPOSITION:visual_impaired=0
DISPOSITION:clean_effects=0
DISPOSITION:attached_pic=0
DISPOSITION:timed_thumbnails=0
TAG:encoder=LAME3.100
[/STREAM]
[STREAM]
index=0
codec_name=mp3
codec_long_name=MP3 (MPEG audio layer 3)
profile=unknown
codec_type=audio
codec_time_base=1/44100
codec_tag_string=[0][0][0][0]
codec_tag=0x0000
sample_fmt=fltp
sample_rate=44100
channels=1
channel_layout=mono
bits_per_sample=0
id=N/A
r_frame_rate=0/0
avg_frame_rate=0/0
time_base=1/14112000
start_pts=353600
start_time=0.025057
duration_ts=86630400
duration=6.138776
bit_rate=96000
max_bit_rate=N/A
bits_per_raw_sample=N/A
nb_frames=N/A
nb_read_frames=N/A
nb_read_packets=N/A
DISPOSITION:default=0
DISPOSITION:dub=0
DISPOSITION:original=0
DISPOSITION:comment=0
DISPOSITION:lyrics=0
DISPOSITION:karaoke=0
DISPOSITION:forced=0
DISPOSITION:hearing_impaired=0
DISPOSITION:visual_impaired=0
DISPOSITION:clean_effects=0
DISPOSITION:attached_pic=0
DISPOSITION:timed_thumbnails=0
TAG:encoder=LAME3.100
[/STREAM]
[STREAM]
index=0
codec_name=mp3
codec_long_name=MP3 (MPEG audio layer 3)
profile=unknown
codec_type=audio
codec_time_base=1/48000
codec_tag_string=[0][0][0][0]
codec_tag=0x0000
sample_fmt=fltp
sample_rate=48000
channels=1
channel_layout=mono
bits_per_sample=0
id=N/A
r_frame_rate=0/0
avg_frame_rate=0/0
time_base=1/14112000
start_pts=324870
start_time=0.023021
duration_ts=140216832
duration=9.936000
bit_rate=96000
max_bit_rate=N/A
bits_per_raw_sample=N/A
nb_frames=N/A
nb_read_frames=N/A
nb_read_packets=N/A
DISPOSITION:default=0
DISPOSITION:dub=0
DISPOSITION:original=0
DISPOSITION:comment=0
DISPOSITION:lyrics=0
DISPOSITION:karaoke=0
DISPOSITION:forced=0
DISPOSITION:hearing_impaired=0
DISPOSITION:visual_impaired=0
DISPOSITION:clean_effects=0
DISPOSITION:attached_pic=0
DISPOSITION:timed_thumbnails=0
TAG:encoder=LAME3.100
[/STREAM]
[STREAM]
index=0
codec_name=mp3
codec_long_name=MP3 (MPEG audio layer 3)
profile=unknown
codec_type=audio
codec_time_base=1/44100
codec_tag_string=[0][0][0][0]
codec_tag=0x0000
sample_fmt=fltp
sample_rate=44100
channels=1
channel_layout=mono
bits_per_sample=0
id=N/A
r_frame_rate=0/0
avg_frame_rate=0/0
time_base=1/14112000
start_pts=353600
start_time=0.025057
duration_ts=128286720
duration=9.090612
bit_rate=96000
max_bit_rate=N/A
bits_per_raw_sample=N/A
nb_frames=N/A
nb_read_frames=N/A
nb_read_packets=N/A
DISPOSITION:default=0
DISPOSITION:dub=0
DISPOSITION:original=0
DISPOSITION:comment=0
DISPOSITION:lyrics=0
DISPOSITION:karaoke=0
DISPOSITION:forced=0
DISPOSITION:hearing_impaired=0
DISPOSITION:visual_impaired=0
DISPOSITION:clean_effects=0
DISPOSITION:attached_pic=0
DISPOSITION:timed_thumbnails=0
TAG:encoder=LAME3.100
[/STREAM]
[STREAM]
index=0
codec_name=mp3
codec_long_name=MP3 (MPEG audio layer 3)
profile=unknown
codec_type=audio
codec_time_base=1/48000
codec_tag_string=[0][0][0][0]
codec_tag=0x0000
sample_fmt=fltp
sample_rate=48000
channels=1
channel_layout=mono
bits_per_sample=0
id=N/A
r_frame_rate=0/0
avg_frame_rate=0/0
time_base=1/14112000
start_pts=324870
start_time=0.023021
duration_ts=41997312
duration=2.976000
bit_rate=96000
max_bit_rate=N/A
bits_per_raw_sample=N/A
nb_frames=N/A
nb_read_frames=N/A
nb_read_packets=N/A
DISPOSITION:default=0
DISPOSITION:dub=0
DISPOSITION:original=0
DISPOSITION:comment=0
DISPOSITION:lyrics=0
DISPOSITION:karaoke=0
DISPOSITION:forced=0
DISPOSITION:hearing_impaired=0
DISPOSITION:visual_impaired=0
DISPOSITION:clean_effects=0
DISPOSITION:attached_pic=0
DISPOSITION:timed_thumbnails=0
TAG:encoder=LAME3.100
[/STREAM]
[STREAM]
index=0
codec_name=mp3
codec_long_name=MP3 (MPEG audio layer 3)
profile=unknown
codec_type=audio
codec_time_base=1/44100
codec_tag_string=[0][0][0][0]
codec_tag=0x0000
sample_fmt=fltp
sample_rate=44100
channels=1
channel_layout=mono
bits_per_sample=0
id=N/A
r_frame_rate=0/0
avg_frame_rate=0/0
time_base=1/14112000
start_pts=353600
start_time=0.025057
duration_ts=114278400
duration=8.097959
bit_rate=96000
max_bit_rate=N/A
bits_per_raw_sample=N/A
nb_frames=N/A
nb_read_frames=N/A
nb_read_packets=N/A
DISPOSITION:default=0
DISPOSITION:dub=0
DISPOSITION:original=0
DISPOSITION:comment=0
DISPOSITION:lyrics=0
DISPOSITION:karaoke=0
DISPOSITION:forced=0
DISPOSITION:hearing_impaired=0
DISPOSITION:visual_impaired=0
DISPOSITION:clean_effects=0
DISPOSITION:attached_pic=0
DISPOSITION:timed_thumbnails=0
TAG:encoder=LAME3.100
[/STREAM]
[STREAM]
index=0
codec_name=mp3
codec_long_name=MP3 (MPEG audio layer 3)
profile=unknown
codec_type=audio
codec_time_base=1/44100
codec_tag_string=[0][0][0][0]
codec_tag=0x0000
sample_fmt=fltp
sample_rate=44100
channels=1
channel_layout=mono
bits_per_sample=0
id=N/A
r_frame_rate=0/0
avg_frame_rate=0/0
time_base=1/14112000
start_pts=353600
start_time=0.025057
duration_ts=35758080
duration=2.533878
bit_rate=96000
max_bit_rate=N/A
bits_per_raw_sample=N/A
nb_frames=N/A
nb_read_frames=N/A
nb_read_packets=N/A
DISPOSITION:default=0
DISPOSITION:dub=0
DISPOSITION:original=0
DISPOSITION:comment=0
DISPOSITION:lyrics=0
DISPOSITION:karaoke=0
DISPOSITION:forced=0
DISPOSITION:hearing_impaired=0
DISPOSITION:visual_impaired=0
DISPOSITION:clean_effects=0
DISPOSITION:attached_pic=0
DISPOSITION:timed_thumbnails=0
TAG:encoder=LAME3.100
[/STREAM]
[STREAM]
index=0
codec_name=mp3
codec_long_name=MP3 (MPEG audio layer 3)
profile=unknown
codec_type=audio
codec_time_base=1/44100
codec_tag_string=[0][0][0][0]
codec_tag=0x0000
sample_fmt=fltp
sample_rate=44100
channels=1
channel_layout=mono
bits_per_sample=0
id=N/A
r_frame_rate=0/0
avg_frame_rate=0/0
time_base=1/14112000
start_pts=353600
start_time=0.025057
duration_ts=239984640
duration=17.005714
bit_rate=96000
max_bit_rate=N/A
bits_per_raw_sample=N/A
nb_frames=N/A
nb_read_frames=N/A
nb_read_packets=N/A
DISPOSITION:default=0
DISPOSITION:dub=0
DISPOSITION:original=0
DISPOSITION:comment=0
DISPOSITION:lyrics=0
DISPOSITION:karaoke=0
DISPOSITION:forced=0
DISPOSITION:hearing_impaired=0
DISPOSITION:visual_impaired=0
DISPOSITION:clean_effects=0
DISPOSITION:attached_pic=0
DISPOSITION:timed_thumbnails=0
TAG:encoder=LAME3.100
[/STREAM]
[STREAM]
index=0
codec_name=mp3
codec_long_name=MP3 (MPEG audio layer 3)
profile=unknown
codec_type=audio
codec_time_base=1/44100
codec_tag_string=[0][0][0][0]
codec_tag=0x0000
sample_fmt=fltp
sample_rate=44100
channels=1
channel_layout=mono
bits_per_sample=0
id=N/A
r_frame_rate=0/0
avg_frame_rate=0/0
time_base=1/14112000
start_pts=353600
start_time=0.025057
duration_ts=78151680
duration=5.537959
bit_rate=96000
max_bit_rate=N/A
bits_per_raw_sample=N/A
nb_frames=N/A
nb_read_frames=N/A
nb_read_packets=N/A
DISPOSITION:default=0
DISPOSITION:dub=0
DISPOSITION:original=0
DISPOSITION:comment=0
DISPOSITION:lyrics=0
DISPOSITION:karaoke=0
DISPOSITION:forced=0
DISPOSITION:hearing_impaired=0
DISPOSITION:visual_impaired=0
DISPOSITION:clean_effects=0
DISPOSITION:attached_pic=0
DISPOSITION:timed_thumbnails=0
TAG:encoder=LAME3.100
[/STREAM]
[STREAM]
index=0
codec_name=mp3
codec_long_name=MP3 (MPEG audio layer 3)
profile=unknown
codec_type=audio
codec_time_base=1/44100
codec_tag_string=[0][0][0][0]
codec_tag=0x0000
sample_fmt=fltp
sample_rate=44100
channels=1
channel_layout=mono
bits_per_sample=0
id=N/A
r_frame_rate=0/0
avg_frame_rate=0/0
time_base=1/14112000
start_pts=353600
start_time=0.025057
duration_ts=151879680
duration=10.762449
bit_rate=96000
max_bit_rate=N/A
bits_per_raw_sample=N/A
nb_frames=N/A
nb_read_frames=N/A
nb_read_packets=N/A
DISPOSITION:default=0
DISPOSITION:dub=0
DISPOSITION:original=0
DISPOSITION:comment=0
DISPOSITION:lyrics=0
DISPOSITION:karaoke=0
DISPOSITION:forced=0
DISPOSITION:hearing_impaired=0
DISPOSITION:visual_impaired=0
DISPOSITION:clean_effects=0
DISPOSITION:attached_pic=0
DISPOSITION:timed_thumbnails=0
TAG:encoder=LAME3.100
[/STREAM]
[STREAM]
index=0
codec_name=mp3
codec_long_name=MP3 (MPEG audio layer 3)
profile=unknown
codec_type=audio
codec_time_base=1/44100
codec_tag_string=[0][0][0][0]
codec_tag=0x0000
sample_fmt=fltp
sample_rate=44100
channels=1
channel_layout=mono
bits_per_sample=0
id=N/A
r_frame_rate=0/0
avg_frame_rate=0/0
time_base=1/14112000
start_pts=353600
start_time=0.025057
duration_ts=104325120
duration=7.392653
bit_rate=96000
max_bit_rate=N/A
bits_per_raw_sample=N/A
nb_frames=N/A
nb_read_frames=N/A
nb_read_packets=N/A
DISPOSITION:default=0
DISPOSITION:dub=0
DISPOSITION:original=0
DISPOSITION:comment=0
DISPOSITION:lyrics=0
DISPOSITION:karaoke=0
DISPOSITION:forced=0
DISPOSITION:hearing_impaired=0
DISPOSITION:visual_impaired=0
DISPOSITION:clean_effects=0
DISPOSITION:attached_pic=0
DISPOSITION:timed_thumbnails=0
TAG:encoder=LAME3.100
[/STREAM]
[STREAM]
index=0
codec_name=mp3
codec_long_name=MP3 (MPEG audio layer 3)
profile=unknown
codec_type=audio
codec_time_base=1/48000
codec_tag_string=[0][0][0][0]
codec_tag=0x0000
sample_fmt=fltp
sample_rate=48000
channels=1
channel_layout=mono
bits_per_sample=0
id=N/A
r_frame_rate=0/0
avg_frame_rate=0/0
time_base=1/14112000
start_pts=324870
start_time=0.023021
duration_ts=2709504
duration=0.192000
bit_rate=96000
max_bit_rate=N/A
bits_per_raw_sample=N/A
nb_frames=N/A
nb_read_frames=N/A
nb_read_packets=N/A
DISPOSITION:default=0
DISPOSITION:dub=0
DISPOSITION:original=0
DISPOSITION:comment=0
DISPOSITION:lyrics=0
DISPOSITION:karaoke=0
DISPOSITION:forced=0
DISPOSITION:hearing_impaired=0
DISPOSITION:visual_impaired=0
DISPOSITION:clean_effects=0
DISPOSITION:attached_pic=0
DISPOSITION:timed_thumbnails=0
TAG:encoder=LAME3.100
[/STREAM]
[STREAM]
index=0
codec_name=mp3
codec_long_name=MP3 (MPEG audio layer 3)
profile=unknown
codec_type=audio
codec_time_base=1/44100
codec_tag_string=[0][0][0][0]
codec_tag=0x0000
sample_fmt=fltp
sample_rate=44100
channels=1
channel_layout=mono
bits_per_sample=0
id=N/A
r_frame_rate=0/0
avg_frame_rate=0/0
time_base=1/14112000
start_pts=353600
start_time=0.025057
duration_ts=161095680
duration=11.415510
bit_rate=96000
max_bit_rate=N/A
bits_per_raw_sample=N/A
nb_frames=N/A
nb_read_frames=N/A
nb_read_packets=N/A
DISPOSITION:default=0
DISPOSITION:dub=0
DISPOSITION:original=0
DISPOSITION:comment=0
DISPOSITION:lyrics=0
DISPOSITION:karaoke=0
DISPOSITION:forced=0
DISPOSITION:hearing_impaired=0
DISPOSITION:visual_impaired=0
DISPOSITION:clean_effects=0
DISPOSITION:attached_pic=0
DISPOSITION:timed_thumbnails=0
TAG:encoder=LAME3.100
[/STREAM]
[STREAM]
index=0
codec_name=mp3
codec_long_name=MP3 (MPEG audio layer 3)
profile=unknown
codec_type=audio
codec_time_base=1/44100
codec_tag_string=[0][0][0][0]
codec_tag=0x0000
sample_fmt=fltp
sample_rate=44100
channels=1
channel_layout=mono
bits_per_sample=0
id=N/A
r_frame_rate=0/0
avg_frame_rate=0/0
time_base=1/14112000
start_pts=353600
start_time=0.025057
duration_ts=50872320
duration=3.604898
bit_rate=96000
max_bit_rate=N/A
bits_per_raw_sample=N/A
nb_frames=N/A
nb_read_frames=N/A
nb_read_packets=N/A
DISPOSITION:default=0
DISPOSITION:dub=0
DISPOSITION:original=0
DISPOSITION:comment=0
DISPOSITION:lyrics=0
DISPOSITION:karaoke=0
DISPOSITION:forced=0
DISPOSITION:hearing_impaired=0
DISPOSITION:visual_impaired=0
DISPOSITION:clean_effects=0
DISPOSITION:attached_pic=0
DISPOSITION:timed_thumbnails=0
TAG:encoder=LAME3.100
[/STREAM]
[STREAM]
index=0
codec_name=mp3
codec_long_name=MP3 (MPEG audio layer 3)
profile=unknown
codec_type=audio
codec_time_base=1/48000
codec_tag_string=[0][0][0][0]
codec_tag=0x0000
sample_fmt=fltp
sample_rate=48000
channels=1
channel_layout=mono
bits_per_sample=0
id=N/A
r_frame_rate=0/0
avg_frame_rate=0/0
time_base=1/14112000
start_pts=324870
start_time=0.023021
duration_ts=39965184
duration=2.832000
bit_rate=96000
max_bit_rate=N/A
bits_per_raw_sample=N/A
nb_frames=N/A
nb_read_frames=N/A
nb_read_packets=N/A
DISPOSITION:default=0
DISPOSITION:dub=0
DISPOSITION:original=0
DISPOSITION:comment=0
DISPOSITION:lyrics=0
DISPOSITION:karaoke=0
DISPOSITION:forced=0
DISPOSITION:hearing_impaired=0
DISPOSITION:visual_impaired=0
DISPOSITION:clean_effects=0
DISPOSITION:attached_pic=0
DISPOSITION:timed_thumbnails=0
TAG:encoder=LAME3.100
[/STREAM]
[STREAM]
index=0
codec_name=mp3
codec_long_name=MP3 (MPEG audio layer 3)
profile=unknown
codec_type=audio
codec_time_base=1/44100
codec_tag_string=[0][0][0][0]
codec_tag=0x0000
sample_fmt=fltp
sample_rate=44100
channels=1
channel_layout=mono
bits_per_sample=0
id=N/A
r_frame_rate=0/0
avg_frame_rate=0/0
time_base=1/14112000
start_pts=353600
start_time=0.025057
duration_ts=43130880
duration=3.056327
bit_rate=96000
max_bit_rate=N/A
bits_per_raw_sample=N/A
nb_frames=N/A
nb_read_frames=N/A
nb_read_packets=N/A
DISPOSITION:default=0
DISPOSITION:dub=0
DISPOSITION:original=0
DISPOSITION:comment=0
DISPOSITION:lyrics=0
DISPOSITION:karaoke=0
DISPOSITION:forced=0
DISPOSITION:hearing_impaired=0
DISPOSITION:visual_impaired=0
DISPOSITION:clean_effects=0
DISPOSITION:attached_pic=0
DISPOSITION:timed_thumbnails=0
TAG:encoder=LAME3.100
[/STREAM]
[STREAM]
index=0
codec_name=mp3
codec_long_name=MP3 (MPEG audio layer 3)
profile=unknown
codec_type=audio
codec_time_base=1/44100
codec_tag_string=[0][0][0][0]
codec_tag=0x0000
sample_fmt=fltp
sample_rate=44100
channels=1
channel_layout=mono
bits_per_sample=0
id=N/A
r_frame_rate=0/0
avg_frame_rate=0/0
time_base=1/14112000
start_pts=353600
start_time=0.025057
duration_ts=28753920
duration=2.037551
bit_rate=96000
max_bit_rate=N/A
bits_per_raw_sample=N/A
nb_frames=N/A
nb_read_frames=N/A
nb_read_packets=N/A
DISPOSITION:default=0
DISPOSITION:dub=0
DISPOSITION:original=0
DISPOSITION:comment=0
DISPOSITION:lyrics=0
DISPOSITION:karaoke=0
DISPOSITION:forced=0
DISPOSITION:hearing_impaired=0
DISPOSITION:visual_impaired=0
DISPOSITION:clean_effects=0
DISPOSITION:attached_pic=0
DISPOSITION:timed_thumbnails=0
TAG:encoder=LAME3.100
[/STREAM]
[STREAM]
index=0
codec_name=mp3
codec_long_name=MP3 (MPEG audio layer 3)
profile=unknown
codec_type=audio
codec_time_base=1/11025
codec_tag_string=[0][0][0][0]
codec_tag=0x0000
sample_fmt=fltp
sample_rate=11025
channels=1
channel_layout=mono
bits_per_sample=0
id=N/A
r_frame_rate=0/0
avg_frame_rate=0/0
time_base=1/14112000
start_pts=1414400
start_time=0.100227
duration_ts=20643840
duration=1.462857
bit_rate=64000
max_bit_rate=N/A
bits_per_raw_sample=N/A
nb_frames=N/A
nb_read_frames=N/A
nb_read_packets=N/A
DISPOSITION:default=0
DISPOSITION:dub=0
DISPOSITION:original=0
DISPOSITION:comment=0
DISPOSITION:lyrics=0
DISPOSITION:karaoke=0
DISPOSITION:forced=0
DISPOSITION:hearing_impaired=0
DISPOSITION:visual_impaired=0
DISPOSITION:clean_effects=0
DISPOSITION:attached_pic=0
DISPOSITION:timed_thumbnails=0
TAG:encoder=LAME3.100
[/STREAM]
[STREAM]
index=0
codec_name=mp3
codec_long_name=MP3 (MPEG audio layer 3)
profile=unknown
codec_type=audio
codec_time_base=1/44100
codec_tag_string=[0][0][0][0]
codec_tag=0x0000
sample_fmt=fltp
sample_rate=44100
channels=1
channel_layout=mono
bits_per_sample=0
id=N/A
r_frame_rate=0/0
avg_frame_rate=0/0
time_base=1/14112000
start_pts=353600
start_time=0.025057
duration_ts=223027200
duration=15.804082
bit_rate=96000
max_bit_rate=N/A
bits_per_raw_sample=N/A
nb_frames=N/A
nb_read_frames=N/A
nb_read_packets=N/A
DISPOSITION:default=0
DISPOSITION:dub=0
DISPOSITION:original=0
DISPOSITION:comment=0
DISPOSITION:lyrics=0
DISPOSITION:karaoke=0
DISPOSITION:forced=0
DISPOSITION:hearing_impaired=0
DISPOSITION:visual_impaired=0
DISPOSITION:clean_effects=0
DISPOSITION:attached_pic=0
DISPOSITION:timed_thumbnails=0
TAG:encoder=LAME3.100
[/STREAM]
[STREAM]
index=0
codec_name=mp3
codec_long_name=MP3 (MPEG audio layer 3)
profile=unknown
codec_type=audio
codec_time_base=1/11025
codec_tag_string=[0][0][0][0]
codec_tag=0x0000
sample_fmt=fltp
sample_rate=11025
channels=1
channel_layout=mono
bits_per_sample=0
id=N/A
r_frame_rate=0/0
avg_frame_rate=0/0
time_base=1/14112000
start_pts=1414400
start_time=0.100227
duration_ts=18432000
duration=1.306122
bit_rate=64000
max_bit_rate=N/A
bits_per_raw_sample=N/A
nb_frames=N/A
nb_read_frames=N/A
nb_read_packets=N/A
DISPOSITION:default=0
DISPOSITION:dub=0
DISPOSITION:original=0
DISPOSITION:comment=0
DISPOSITION:lyrics=0
DISPOSITION:karaoke=0
DISPOSITION:forced=0
DISPOSITION:hearing_impaired=0
DISPOSITION:visual_impaired=0
DISPOSITION:clean_effects=0
DISPOSITION:attached_pic=0
DISPOSITION:timed_thumbnails=0
TAG:encoder=LAME3.100
[/STREAM]
[STREAM]
index=0
codec_name=mp3
codec_long_name=MP3 (MPEG audio layer 3)
profile=unknown
codec_type=audio
codec_time_base=1/44100
codec_tag_string=[0][0][0][0]
codec_tag=0x0000
sample_fmt=fltp
sample_rate=44100
channels=1
channel_layout=mono
bits_per_sample=0
id=N/A
r_frame_rate=0/0
avg_frame_rate=0/0
time_base=1/14112000
start_pts=353600
start_time=0.025057
duration_ts=16220160
duration=1.149388
bit_rate=96000
max_bit_rate=N/A
bits_per_raw_sample=N/A
nb_frames=N/A
nb_read_frames=N/A
nb_read_packets=N/A
DISPOSITION:default=0
DISPOSITION:dub=0
DISPOSITION:original=0
DISPOSITION:comment=0
DISPOSITION:lyrics=0
DISPOSITION:karaoke=0
DISPOSITION:forced=0
DISPOSITION:hearing_impaired=0
DISPOSITION:visual_impaired=0
DISPOSITION:clean_effects=0
DISPOSITION:attached_pic=0
DISPOSITION:timed_thumbnails=0
TAG:encoder=LAME3.100
[/STREAM]
[STREAM]
index=0
codec_name=mp3
codec_long_name=MP3 (MPEG audio layer 3)
profile=unknown
codec_type=audio
codec_time_base=1/44100
codec_tag_string=[0][0][0][0]
codec_tag=0x0000
sample_fmt=fltp
sample_rate=44100
channels=1
channel_layout=mono
bits_per_sample=0
id=N/A
r_frame_rate=0/0
avg_frame_rate=0/0
time_base=1/14112000
start_pts=353600
start_time=0.025057
duration_ts=43130880
duration=3.056327
bit_rate=96000
max_bit_rate=N/A
bits_per_raw_sample=N/A
nb_frames=N/A
nb_read_frames=N/A
nb_read_packets=N/A
DISPOSITION:default=0
DISPOSITION:dub=0
DISPOSITION:original=0
DISPOSITION:comment=0
DISPOSITION:lyrics=0
DISPOSITION:karaoke=0
DISPOSITION:forced=0
DISPOSITION:hearing_impaired=0
DISPOSITION:visual_impaired=0
DISPOSITION:clean_effects=0
DISPOSITION:attached_pic=0
DISPOSITION:timed_thumbnails=0
TAG:encoder=LAME3.100
[/STREAM]
[STREAM]
index=0
codec_name=mp3
codec_long_name=MP3 (MPEG audio layer 3)
profile=unknown
codec_type=audio
codec_time_base=1/44100
codec_tag_string=[0][0][0][0]
codec_tag=0x0000
sample_fmt=fltp
sample_rate=44100
channels=1
channel_layout=mono
bits_per_sample=0
id=N/A
r_frame_rate=0/0
avg_frame_rate=0/0
time_base=1/14112000
start_pts=353600
start_time=0.025057
duration_ts=33546240
duration=2.377143
bit_rate=96000
max_bit_rate=N/A
bits_per_raw_sample=N/A
nb_frames=N/A
nb_read_frames=N/A
nb_read_packets=N/A
DISPOSITION:default=0
DISPOSITION:dub=0
DISPOSITION:original=0
DISPOSITION:comment=0
DISPOSITION:lyrics=0
DISPOSITION:karaoke=0
DISPOSITION:forced=0
DISPOSITION:hearing_impaired=0
DISPOSITION:visual_impaired=0
DISPOSITION:clean_effects=0
DISPOSITION:attached_pic=0
DISPOSITION:timed_thumbnails=0
TAG:encoder=LAME3.100
[/STREAM]
[STREAM]
index=0
codec_name=mp3
codec_long_name=MP3 (MPEG audio layer 3)
profile=unknown
codec_type=audio
codec_time_base=1/44100
codec_tag_string=[0][0][0][0]
codec_tag=0x0000
sample_fmt=fltp
sample_rate=44100
channels=1
channel_layout=mono
bits_per_sample=0
id=N/A
r_frame_rate=0/0
avg_frame_rate=0/0
time_base=1/14112000
start_pts=353600
start_time=0.025057
duration_ts=101376000
duration=7.183673
bit_rate=96000
max_bit_rate=N/A
bits_per_raw_sample=N/A
nb_frames=N/A
nb_read_frames=N/A
nb_read_packets=N/A
DISPOSITION:default=0
DISPOSITION:dub=0
DISPOSITION:original=0
DISPOSITION:comment=0
DISPOSITION:lyrics=0
DISPOSITION:karaoke=0
DISPOSITION:forced=0
DISPOSITION:hearing_impaired=0
DISPOSITION:visual_impaired=0
DISPOSITION:clean_effects=0
DISPOSITION:attached_pic=0
DISPOSITION:timed_thumbnails=0
TAG:encoder=LAME3.100
[/STREAM]
[STREAM]
index=0
codec_name=mp3
codec_long_name=MP3 (MPEG audio layer 3)
profile=unknown
codec_type=audio
codec_time_base=1/44100
codec_tag_string=[0][0][0][0]
codec_tag=0x0000
sample_fmt=fltp
sample_rate=44100
channels=1
channel_layout=mono
bits_per_sample=0
id=N/A
r_frame_rate=0/0
avg_frame_rate=0/0
time_base=1/14112000
start_pts=353600
start_time=0.025057
duration_ts=12902400
duration=0.914286
bit_rate=96000
max_bit_rate=N/A
bits_per_raw_sample=N/A
nb_frames=N/A
nb_read_frames=N/A
nb_read_packets=N/A
DISPOSITION:default=0
DISPOSITION:dub=0
DISPOSITION:original=0
DISPOSITION:comment=0
DISPOSITION:lyrics=0
DISPOSITION:karaoke=0
DISPOSITION:forced=0
DISPOSITION:hearing_impaired=0
DISPOSITION:visual_impaired=0
DISPOSITION:clean_effects=0
DISPOSITION:attached_pic=0
DISPOSITION:timed_thumbnails=0
TAG:encoder=LAME3.100
[/STREAM]
[STREAM]
index=0
codec_name=mp3
codec_long_name=MP3 (MPEG audio layer 3)
profile=unknown
codec_type=audio
codec_time_base=1/44100
codec_tag_string=[0][0][0][0]
codec_tag=0x0000
sample_fmt=fltp
sample_rate=44100
channels=1
channel_layout=mono
bits_per_sample=0
id=N/A
r_frame_rate=0/0
avg_frame_rate=0/0
time_base=1/14112000
start_pts=353600
start_time=0.025057
duration_ts=20643840
duration=1.462857
bit_rate=96000
max_bit_rate=N/A
bits_per_raw_sample=N/A
nb_frames=N/A
nb_read_frames=N/A
nb_read_packets=N/A
DISPOSITION:default=0
DISPOSITION:dub=0
DISPOSITION:original=0
DISPOSITION:comment=0
DISPOSITION:lyrics=0
DISPOSITION:karaoke=0
DISPOSITION:forced=0
DISPOSITION:hearing_impaired=0
DISPOSITION:visual_impaired=0
DISPOSITION:clean_effects=0
DISPOSITION:attached_pic=0
DISPOSITION:timed_thumbnails=0
TAG:encoder=LAME3.100
[/STREAM]
[STREAM]
index=0
codec_name=mp3
codec_long_name=MP3 (MPEG audio layer 3)
profile=unknown
codec_type=audio
codec_time_base=1/44100
codec_tag_string=[0][0][0][0]
codec_tag=0x0000
sample_fmt=fltp
sample_rate=44100
channels=1
channel_layout=mono
bits_per_sample=0
id=N/A
r_frame_rate=0/0
avg_frame_rate=0/0
time_base=1/14112000
start_pts=353600
start_time=0.025057
duration_ts=426147840
duration=30.197551
bit_rate=96000
max_bit_rate=N/A
bits_per_raw_sample=N/A
nb_frames=N/A
nb_read_frames=N/A
nb_read_packets=N/A
DISPOSITION:default=0
DISPOSITION:dub=0
DISPOSITION:original=0
DISPOSITION:comment=0
DISPOSITION:lyrics=0
DISPOSITION:karaoke=0
DISPOSITION:forced=0
DISPOSITION:hearing_impaired=0
DISPOSITION:visual_impaired=0
DISPOSITION:clean_effects=0
DISPOSITION:attached_pic=0
DISPOSITION:timed_thumbnails=0
TAG:encoder=LAME3.100
[/STREAM]
[STREAM]
index=0
codec_name=mp3
codec_long_name=MP3 (MPEG audio layer 3)
profile=unknown
codec_type=audio
codec_time_base=1/44100
codec_tag_string=[0][0][0][0]
codec_tag=0x0000
sample_fmt=fltp
sample_rate=44100
channels=1
channel_layout=mono
bits_per_sample=0
id=N/A
r_frame_rate=0/0
avg_frame_rate=0/0
time_base=1/14112000
start_pts=353600
start_time=0.025057
duration_ts=46448640
duration=3.291429
bit_rate=96000
max_bit_rate=N/A
bits_per_raw_sample=N/A
nb_frames=N/A
nb_read_frames=N/A
nb_read_packets=N/A
DISPOSITION:default=0
DISPOSITION:dub=0
DISPOSITION:original=0
DISPOSITION:comment=0
DISPOSITION:lyrics=0
DISPOSITION:karaoke=0
DISPOSITION:forced=0
DISPOSITION:hearing_impaired=0
DISPOSITION:visual_impaired=0
DISPOSITION:clean_effects=0
DISPOSITION:attached_pic=0
DISPOSITION:timed_thumbnails=0
TAG:encoder=LAME3.100
[/STREAM]
[STREAM]
index=0
codec_name=mp3
codec_long_name=MP3 (MPEG audio layer 3)
profile=unknown
codec_type=audio
codec_time_base=1/44100
codec_tag_string=[0][0][0][0]
codec_tag=0x0000
sample_fmt=fltp
sample_rate=44100
channels=1
channel_layout=mono
bits_per_sample=0
id=N/A
r_frame_rate=0/0
avg_frame_rate=0/0
time_base=1/14112000
start_pts=353600
start_time=0.025057
duration_ts=44605440
duration=3.160816
bit_rate=96000
max_bit_rate=N/A
bits_per_raw_sample=N/A
nb_frames=N/A
nb_read_frames=N/A
nb_read_packets=N/A
DISPOSITION:default=0
DISPOSITION:dub=0
DISPOSITION:original=0
DISPOSITION:comment=0
DISPOSITION:lyrics=0
DISPOSITION:karaoke=0
DISPOSITION:forced=0
DISPOSITION:hearing_impaired=0
DISPOSITION:visual_impaired=0
DISPOSITION:clean_effects=0
DISPOSITION:attached_pic=0
DISPOSITION:timed_thumbnails=0
TAG:encoder=LAME3.100
[/STREAM]
[STREAM]
index=0
codec_name=mp3
codec_long_name=MP3 (MPEG audio layer 3)
profile=unknown
codec_type=audio
codec_time_base=1/44100
codec_tag_string=[0][0][0][0]
codec_tag=0x0000
sample_fmt=fltp
sample_rate=44100
channels=1
channel_layout=mono
bits_per_sample=0
id=N/A
r_frame_rate=0/0
avg_frame_rate=0/0
time_base=1/14112000
start_pts=353600
start_time=0.025057
duration_ts=56033280
duration=3.970612
bit_rate=96000
max_bit_rate=N/A
bits_per_raw_sample=N/A
nb_frames=N/A
nb_read_frames=N/A
nb_read_packets=N/A
DISPOSITION:default=0
DISPOSITION:dub=0
DISPOSITION:original=0
DISPOSITION:comment=0
DISPOSITION:lyrics=0
DISPOSITION:karaoke=0
DISPOSITION:forced=0
DISPOSITION:hearing_impaired=0
DISPOSITION:visual_impaired=0
DISPOSITION:clean_effects=0
DISPOSITION:attached_pic=0
DISPOSITION:timed_thumbnails=0
TAG:encoder=LAME3.100
[/STREAM]
[STREAM]
index=0
codec_name=mp3
codec_long_name=MP3 (MPEG audio layer 3)
profile=unknown
codec_type=audio
codec_time_base=1/44100
codec_tag_string=[0][0][0][0]
codec_tag=0x0000
sample_fmt=fltp
sample_rate=44100
channels=1
channel_layout=mono
bits_per_sample=0
id=N/A
r_frame_rate=0/0
avg_frame_rate=0/0
time_base=1/14112000
start_pts=353600
start_time=0.025057
duration_ts=14376960
duration=1.018776
bit_rate=96000
max_bit_rate=N/A
bits_per_raw_sample=N/A
nb_frames=N/A
nb_read_frames=N/A
nb_read_packets=N/A
DISPOSITION:default=0
DISPOSITION:dub=0
DISPOSITION:original=0
DISPOSITION:comment=0
DISPOSITION:lyrics=0
DISPOSITION:karaoke=0
DISPOSITION:forced=0
DISPOSITION:hearing_impaired=0
DISPOSITION:visual_impaired=0
DISPOSITION:clean_effects=0
DISPOSITION:attached_pic=0
DISPOSITION:timed_thumbnails=0
TAG:encoder=LAME3.100
[/STREAM]
[STREAM]
index=0
codec_name=mp3
codec_long_name=MP3 (MPEG audio layer 3)
profile=unknown
codec_type=audio
codec_time_base=1/22050
codec_tag_string=[0][0][0][0]
codec_tag=0x0000
sample_fmt=fltp
sample_rate=22050
channels=1
channel_layout=mono
bits_per_sample=0
id=N/A
r_frame_rate=0/0
avg_frame_rate=0/0
time_base=1/14112000
start_pts=707200
start_time=0.050113
duration_ts=75571200
duration=5.355102
bit_rate=96000
max_bit_rate=N/A
bits_per_raw_sample=N/A
nb_frames=N/A
nb_read_frames=N/A
nb_read_packets=N/A
DISPOSITION:default=0
DISPOSITION:dub=0
DISPOSITION:original=0
DISPOSITION:comment=0
DISPOSITION:lyrics=0
DISPOSITION:karaoke=0
DISPOSITION:forced=0
DISPOSITION:hearing_impaired=0
DISPOSITION:visual_impaired=0
DISPOSITION:clean_effects=0
DISPOSITION:attached_pic=0
DISPOSITION:timed_thumbnails=0
TAG:encoder=LAME3.100
[/STREAM]
[STREAM]
index=0
codec_name=mp3
codec_long_name=MP3 (MPEG audio layer 3)
profile=unknown
codec_type=audio
codec_time_base=1/44100
codec_tag_string=[0][0][0][0]
codec_tag=0x0000
sample_fmt=fltp
sample_rate=44100
channels=1
channel_layout=mono
bits_per_sample=0
id=N/A
r_frame_rate=0/0
avg_frame_rate=0/0
time_base=1/14112000
start_pts=353600
start_time=0.025057
duration_ts=37232640
duration=2.638367
bit_rate=96000
max_bit_rate=N/A
bits_per_raw_sample=N/A
nb_frames=N/A
nb_read_frames=N/A
nb_read_packets=N/A
DISPOSITION:default=0
DISPOSITION:dub=0
DISPOSITION:original=0
DISPOSITION:comment=0
DISPOSITION:lyrics=0
DISPOSITION:karaoke=0
DISPOSITION:forced=0
DISPOSITION:hearing_impaired=0
DISPOSITION:visual_impaired=0
DISPOSITION:clean_effects=0
DISPOSITION:attached_pic=0
DISPOSITION:timed_thumbnails=0
TAG:encoder=LAME3.100
[/STREAM]
[STREAM]
index=0
codec_name=mp3
codec_long_name=MP3 (MPEG audio layer 3)
profile=unknown
codec_type=audio
codec_time_base=1/44100
codec_tag_string=[0][0][0][0]
codec_tag=0x0000
sample_fmt=fltp
sample_rate=44100
channels=1
channel_layout=mono
bits_per_sample=0
id=N/A
r_frame_rate=0/0
avg_frame_rate=0/0
time_base=1/14112000
start_pts=353600
start_time=0.025057
duration_ts=27279360
duration=1.933061
bit_rate=96000
max_bit_rate=N/A
bits_per_raw_sample=N/A
nb_frames=N/A
nb_read_frames=N/A
nb_read_packets=N/A
DISPOSITION:default=0
DISPOSITION:dub=0
DISPOSITION:original=0
DISPOSITION:comment=0
DISPOSITION:lyrics=0
DISPOSITION:karaoke=0
DISPOSITION:forced=0
DISPOSITION:hearing_impaired=0
DISPOSITION:visual_impaired=0
DISPOSITION:clean_effects=0
DISPOSITION:attached_pic=0
DISPOSITION:timed_thumbnails=0
TAG:encoder=LAME3.100
[/STREAM]
[STREAM]
index=0
codec_name=mp3
codec_long_name=MP3 (MPEG audio layer 3)
profile=unknown
codec_type=audio
codec_time_base=1/44100
codec_tag_string=[0][0][0][0]
codec_tag=0x0000
sample_fmt=fltp
sample_rate=44100
channels=1
channel_layout=mono
bits_per_sample=0
id=N/A
r_frame_rate=0/0
avg_frame_rate=0/0
time_base=1/14112000
start_pts=353600
start_time=0.025057
duration_ts=250306560
duration=17.737143
bit_rate=96000
max_bit_rate=N/A
bits_per_raw_sample=N/A
nb_frames=N/A
nb_read_frames=N/A
nb_read_packets=N/A
DISPOSITION:default=0
DISPOSITION:dub=0
DISPOSITION:original=0
DISPOSITION:comment=0
DISPOSITION:lyrics=0
DISPOSITION:karaoke=0
DISPOSITION:forced=0
DISPOSITION:hearing_impaired=0
DISPOSITION:visual_impaired=0
DISPOSITION:clean_effects=0
DISPOSITION:attached_pic=0
DISPOSITION:timed_thumbnails=0
TAG:encoder=LAME3.100
[/STREAM]
[STREAM]
index=0
codec_name=mp3
codec_long_name=MP3 (MPEG audio layer 3)
profile=unknown
codec_type=audio
codec_time_base=1/44100
codec_tag_string=[0][0][0][0]
codec_tag=0x0000
sample_fmt=fltp
sample_rate=44100
channels=1
channel_layout=mono
bits_per_sample=0
id=N/A
r_frame_rate=0/0
avg_frame_rate=0/0
time_base=1/14112000
start_pts=353600
start_time=0.025057
duration_ts=12533760
duration=0.888163
bit_rate=96000
max_bit_rate=N/A
bits_per_raw_sample=N/A
nb_frames=N/A
nb_read_frames=N/A
nb_read_packets=N/A
DISPOSITION:default=0
DISPOSITION:dub=0
DISPOSITION:original=0
DISPOSITION:comment=0
DISPOSITION:lyrics=0
DISPOSITION:karaoke=0
DISPOSITION:forced=0
DISPOSITION:hearing_impaired=0
DISPOSITION:visual_impaired=0
DISPOSITION:clean_effects=0
DISPOSITION:attached_pic=0
DISPOSITION:timed_thumbnails=0
TAG:encoder=LAME3.100
[/STREAM]
[STREAM]
index=0
codec_name=mp3
codec_long_name=MP3 (MPEG audio layer 3)
profile=unknown
codec_type=audio
codec_time_base=1/44100
codec_tag_string=[0][0][0][0]
codec_tag=0x0000
sample_fmt=fltp
sample_rate=44100
channels=1
channel_layout=mono
bits_per_sample=0
id=N/A
r_frame_rate=0/0
avg_frame_rate=0/0
time_base=1/14112000
start_pts=353600
start_time=0.025057
duration_ts=29859840
duration=2.115918
bit_rate=96000
max_bit_rate=N/A
bits_per_raw_sample=N/A
nb_frames=N/A
nb_read_frames=N/A
nb_read_packets=N/A
DISPOSITION:default=0
DISPOSITION:dub=0
DISPOSITION:original=0
DISPOSITION:comment=0
DISPOSITION:lyrics=0
DISPOSITION:karaoke=0
DISPOSITION:forced=0
DISPOSITION:hearing_impaired=0
DISPOSITION:visual_impaired=0
DISPOSITION:clean_effects=0
DISPOSITION:attached_pic=0
DISPOSITION:timed_thumbnails=0
TAG:encoder=LAME3.100
[/STREAM]
[STREAM]
index=0
codec_name=mp3
codec_long_name=MP3 (MPEG audio layer 3)
profile=unknown
codec_type=audio
codec_time_base=1/44100
codec_tag_string=[0][0][0][0]
codec_tag=0x0000
sample_fmt=fltp
sample_rate=44100
channels=1
channel_layout=mono
bits_per_sample=0
id=N/A
r_frame_rate=0/0
avg_frame_rate=0/0
time_base=1/14112000
start_pts=353600
start_time=0.025057
duration_ts=29859840
duration=2.115918
bit_rate=96000
max_bit_rate=N/A
bits_per_raw_sample=N/A
nb_frames=N/A
nb_read_frames=N/A
nb_read_packets=N/A
DISPOSITION:default=0
DISPOSITION:dub=0
DISPOSITION:original=0
DISPOSITION:comment=0
DISPOSITION:lyrics=0
DISPOSITION:karaoke=0
DISPOSITION:forced=0
DISPOSITION:hearing_impaired=0
DISPOSITION:visual_impaired=0
DISPOSITION:clean_effects=0
DISPOSITION:attached_pic=0
DISPOSITION:timed_thumbnails=0
TAG:encoder=LAME3.100
[/STREAM]
[STREAM]
index=0
codec_name=mp3
codec_long_name=MP3 (MPEG audio layer 3)
profile=unknown
codec_type=audio
codec_time_base=1/44100
codec_tag_string=[0][0][0][0]
codec_tag=0x0000
sample_fmt=fltp
sample_rate=44100
channels=1
channel_layout=mono
bits_per_sample=0
id=N/A
r_frame_rate=0/0
avg_frame_rate=0/0
time_base=1/14112000
start_pts=353600
start_time=0.025057
duration_ts=144506880
duration=10.240000
bit_rate=96000
max_bit_rate=N/A
bits_per_raw_sample=N/A
nb_frames=N/A
nb_read_frames=N/A
nb_read_packets=N/A
DISPOSITION:default=0
DISPOSITION:dub=0
DISPOSITION:original=0
DISPOSITION:comment=0
DISPOSITION:lyrics=0
DISPOSITION:karaoke=0
DISPOSITION:forced=0
DISPOSITION:hearing_impaired=0
DISPOSITION:visual_impaired=0
DISPOSITION:clean_effects=0
DISPOSITION:attached_pic=0
DISPOSITION:timed_thumbnails=0
TAG:encoder=LAME3.100
[/STREAM]
[STREAM]
index=0
codec_name=mp3
codec_long_name=MP3 (MPEG audio layer 3)
profile=unknown
codec_type=audio
codec_time_base=1/44100
codec_tag_string=[0][0][0][0]
codec_tag=0x0000
sample_fmt=fltp
sample_rate=44100
channels=1
channel_layout=mono
bits_per_sample=0
id=N/A
r_frame_rate=0/0
avg_frame_rate=0/0
time_base=1/14112000
start_pts=353600
start_time=0.025057
duration_ts=51609600
duration=3.657143
bit_rate=96000
max_bit_rate=N/A
bits_per_raw_sample=N/A
nb_frames=N/A
nb_read_frames=N/A
nb_read_packets=N/A
DISPOSITION:default=0
DISPOSITION:dub=0
DISPOSITION:original=0
DISPOSITION:comment=0
DISPOSITION:lyrics=0
DISPOSITION:karaoke=0
DISPOSITION:forced=0
DISPOSITION:hearing_impaired=0
DISPOSITION:visual_impaired=0
DISPOSITION:clean_effects=0
DISPOSITION:attached_pic=0
DISPOSITION:timed_thumbnails=0
TAG:encoder=LAME3.100
[/STREAM]
[STREAM]
index=0
codec_name=mp3
codec_long_name=MP3 (MPEG audio layer 3)
profile=unknown
codec_type=audio
codec_time_base=1/44100
codec_tag_string=[0][0][0][0]
codec_tag=0x0000
sample_fmt=fltp
sample_rate=44100
channels=1
channel_layout=mono
bits_per_sample=0
id=N/A
r_frame_rate=0/0
avg_frame_rate=0/0
time_base=1/14112000
start_pts=353600
start_time=0.025057
duration_ts=162201600
duration=11.493878
bit_rate=96000
max_bit_rate=N/A
bits_per_raw_sample=N/A
nb_frames=N/A
nb_read_frames=N/A
nb_read_packets=N/A
DISPOSITION:default=0
DISPOSITION:dub=0
DISPOSITION:original=0
DISPOSITION:comment=0
DISPOSITION:lyrics=0
DISPOSITION:karaoke=0
DISPOSITION:forced=0
DISPOSITION:hearing_impaired=0
DISPOSITION:visual_impaired=0
DISPOSITION:clean_effects=0
DISPOSITION:attached_pic=0
DISPOSITION:timed_thumbnails=0
TAG:encoder=LAME3.100
[/STREAM]
[STREAM]
index=0
codec_name=mp3
codec_long_name=MP3 (MPEG audio layer 3)
profile=unknown
codec_type=audio
codec_time_base=1/44100
codec_tag_string=[0][0][0][0]
codec_tag=0x0000
sample_fmt=fltp
sample_rate=44100
channels=1
channel_layout=mono
bits_per_sample=0
id=N/A
r_frame_rate=0/0
avg_frame_rate=0/0
time_base=1/14112000
start_pts=353600
start_time=0.025057
duration_ts=16957440
duration=1.201633
bit_rate=96000
max_bit_rate=N/A
bits_per_raw_sample=N/A
nb_frames=N/A
nb_read_frames=N/A
nb_read_packets=N/A
DISPOSITION:default=0
DISPOSITION:dub=0
DISPOSITION:original=0
DISPOSITION:comment=0
DISPOSITION:lyrics=0
DISPOSITION:karaoke=0
DISPOSITION:forced=0
DISPOSITION:hearing_impaired=0
DISPOSITION:visual_impaired=0
DISPOSITION:clean_effects=0
DISPOSITION:attached_pic=0
DISPOSITION:timed_thumbnails=0
TAG:encoder=LAME3.100
[/STREAM]
[STREAM]
index=0
codec_name=mp3
codec_long_name=MP3 (MPEG audio layer 3)
profile=unknown
codec_type=audio
codec_time_base=1/44100
codec_tag_string=[0][0][0][0]
codec_tag=0x0000
sample_fmt=fltp
sample_rate=44100
channels=1
channel_layout=mono
bits_per_sample=0
id=N/A
r_frame_rate=0/0
avg_frame_rate=0/0
time_base=1/14112000
start_pts=353600
start_time=0.025057
duration_ts=177315840
duration=12.564898
bit_rate=96000
max_bit_rate=N/A
bits_per_raw_sample=N/A
nb_frames=N/A
nb_read_frames=N/A
nb_read_packets=N/A
DISPOSITION:default=0
DISPOSITION:dub=0
DISPOSITION:original=0
DISPOSITION:comment=0
DISPOSITION:lyrics=0
DISPOSITION:karaoke=0
DISPOSITION:forced=0
DISPOSITION:hearing_impaired=0
DISPOSITION:visual_impaired=0
DISPOSITION:clean_effects=0
DISPOSITION:attached_pic=0
DISPOSITION:timed_thumbnails=0
TAG:encoder=LAME3.100
[/STREAM]
[STREAM]
index=0
codec_name=mp3
codec_long_name=MP3 (MPEG audio layer 3)
profile=unknown
codec_type=audio
codec_time_base=1/44100
codec_tag_string=[0][0][0][0]
codec_tag=0x0000
sample_fmt=fltp
sample_rate=44100
channels=1
channel_layout=mono
bits_per_sample=0
id=N/A
r_frame_rate=0/0
avg_frame_rate=0/0
time_base=1/14112000
start_pts=353600
start_time=0.025057
duration_ts=173629440
duration=12.303673
bit_rate=96000
max_bit_rate=N/A
bits_per_raw_sample=N/A
nb_frames=N/A
nb_read_frames=N/A
nb_read_packets=N/A
DISPOSITION:default=0
DISPOSITION:dub=0
DISPOSITION:original=0
DISPOSITION:comment=0
DISPOSITION:lyrics=0
DISPOSITION:karaoke=0
DISPOSITION:forced=0
DISPOSITION:hearing_impaired=0
DISPOSITION:visual_impaired=0
DISPOSITION:clean_effects=0
DISPOSITION:attached_pic=0
DISPOSITION:timed_thumbnails=0
TAG:encoder=LAME3.100
[/STREAM]
[STREAM]
index=0
codec_name=mp3
codec_long_name=MP3 (MPEG audio layer 3)
profile=unknown
codec_type=audio
codec_time_base=1/44100
codec_tag_string=[0][0][0][0]
codec_tag=0x0000
sample_fmt=fltp
sample_rate=44100
channels=1
channel_layout=mono
bits_per_sample=0
id=N/A
r_frame_rate=0/0
avg_frame_rate=0/0
time_base=1/14112000
start_pts=353600
start_time=0.025057
duration_ts=27279360
duration=1.933061
bit_rate=96000
max_bit_rate=N/A
bits_per_raw_sample=N/A
nb_frames=N/A
nb_read_frames=N/A
nb_read_packets=N/A
DISPOSITION:default=0
DISPOSITION:dub=0
DISPOSITION:original=0
DISPOSITION:comment=0
DISPOSITION:lyrics=0
DISPOSITION:karaoke=0
DISPOSITION:forced=0
DISPOSITION:hearing_impaired=0
DISPOSITION:visual_impaired=0
DISPOSITION:clean_effects=0
DISPOSITION:attached_pic=0
DISPOSITION:timed_thumbnails=0
TAG:encoder=LAME3.100
[/STREAM]
[STREAM]
index=0
codec_name=mp3
codec_long_name=MP3 (MPEG audio layer 3)
profile=unknown
codec_type=audio
codec_time_base=1/22050
codec_tag_string=[0][0][0][0]
codec_tag=0x0000
sample_fmt=fltp
sample_rate=22050
channels=1
channel_layout=mono
bits_per_sample=0
id=N/A
r_frame_rate=0/0
avg_frame_rate=0/0
time_base=1/14112000
start_pts=707200
start_time=0.050113
duration_ts=71884800
duration=5.093878
bit_rate=96000
max_bit_rate=N/A
bits_per_raw_sample=N/A
nb_frames=N/A
nb_read_frames=N/A
nb_read_packets=N/A
DISPOSITION:default=0
DISPOSITION:dub=0
DISPOSITION:original=0
DISPOSITION:comment=0
DISPOSITION:lyrics=0
DISPOSITION:karaoke=0
DISPOSITION:forced=0
DISPOSITION:hearing_impaired=0
DISPOSITION:visual_impaired=0
DISPOSITION:clean_effects=0
DISPOSITION:attached_pic=0
DISPOSITION:timed_thumbnails=0
TAG:encoder=LAME3.100
[/STREAM]
[STREAM]
index=0
codec_name=mp3
codec_long_name=MP3 (MPEG audio layer 3)
profile=unknown
codec_type=audio
codec_time_base=1/44100
codec_tag_string=[0][0][0][0]
codec_tag=0x0000
sample_fmt=fltp
sample_rate=44100
channels=1
channel_layout=mono
bits_per_sample=0
id=N/A
r_frame_rate=0/0
avg_frame_rate=0/0
time_base=1/14112000
start_pts=353600
start_time=0.025057
duration_ts=140451840
duration=9.952653
bit_rate=96000
max_bit_rate=N/A
bits_per_raw_sample=N/A
nb_frames=N/A
nb_read_frames=N/A
nb_read_packets=N/A
DISPOSITION:default=0
DISPOSITION:dub=0
DISPOSITION:original=0
DISPOSITION:comment=0
DISPOSITION:lyrics=0
DISPOSITION:karaoke=0
DISPOSITION:forced=0
DISPOSITION:hearing_impaired=0
DISPOSITION:visual_impaired=0
DISPOSITION:clean_effects=0
DISPOSITION:attached_pic=0
DISPOSITION:timed_thumbnails=0
TAG:encoder=LAME3.100
[/STREAM]
[STREAM]
index=0
codec_name=mp3
codec_long_name=MP3 (MPEG audio layer 3)
profile=unknown
codec_type=audio
codec_time_base=1/44100
codec_tag_string=[0][0][0][0]
codec_tag=0x0000
sample_fmt=fltp
sample_rate=44100
channels=1
channel_layout=mono
bits_per_sample=0
id=N/A
r_frame_rate=0/0
avg_frame_rate=0/0
time_base=1/14112000
start_pts=353600
start_time=0.025057
duration_ts=103219200
duration=7.314286
bit_rate=96000
max_bit_rate=N/A
bits_per_raw_sample=N/A
nb_frames=N/A
nb_read_frames=N/A
nb_read_packets=N/A
DISPOSITION:default=0
DISPOSITION:dub=0
DISPOSITION:original=0
DISPOSITION:comment=0
DISPOSITION:lyrics=0
DISPOSITION:karaoke=0
DISPOSITION:forced=0
DISPOSITION:hearing_impaired=0
DISPOSITION:visual_impaired=0
DISPOSITION:clean_effects=0
DISPOSITION:attached_pic=0
DISPOSITION:timed_thumbnails=0
TAG:encoder=LAME3.100
[/STREAM]
[STREAM]
index=0
codec_name=mp3
codec_long_name=MP3 (MPEG audio layer 3)
profile=unknown
codec_type=audio
codec_time_base=1/44100
codec_tag_string=[0][0][0][0]
codec_tag=0x0000
sample_fmt=fltp
sample_rate=44100
channels=1
channel_layout=mono
bits_per_sample=0
id=N/A
r_frame_rate=0/0
avg_frame_rate=0/0
time_base=1/14112000
start_pts=353600
start_time=0.025057
duration_ts=141189120
duration=10.004898
bit_rate=96000
max_bit_rate=N/A
bits_per_raw_sample=N/A
nb_frames=N/A
nb_read_frames=N/A
nb_read_packets=N/A
DISPOSITION:default=0
DISPOSITION:dub=0
DISPOSITION:original=0
DISPOSITION:comment=0
DISPOSITION:lyrics=0
DISPOSITION:karaoke=0
DISPOSITION:forced=0
DISPOSITION:hearing_impaired=0
DISPOSITION:visual_impaired=0
DISPOSITION:clean_effects=0
DISPOSITION:attached_pic=0
DISPOSITION:timed_thumbnails=0
TAG:encoder=LAME3.100
[/STREAM]
[STREAM]
index=0
codec_name=mp3
codec_long_name=MP3 (MPEG audio layer 3)
profile=unknown
codec_type=audio
codec_time_base=1/48000
codec_tag_string=[0][0][0][0]
codec_tag=0x0000
sample_fmt=fltp
sample_rate=48000
channels=1
channel_layout=mono
bits_per_sample=0
id=N/A
r_frame_rate=0/0
avg_frame_rate=0/0
time_base=1/14112000
start_pts=324870
start_time=0.023021
duration_ts=90091008
duration=6.384000
bit_rate=96000
max_bit_rate=N/A
bits_per_raw_sample=N/A
nb_frames=N/A
nb_read_frames=N/A
nb_read_packets=N/A
DISPOSITION:default=0
DISPOSITION:dub=0
DISPOSITION:original=0
DISPOSITION:comment=0
DISPOSITION:lyrics=0
DISPOSITION:karaoke=0
DISPOSITION:forced=0
DISPOSITION:hearing_impaired=0
DISPOSITION:visual_impaired=0
DISPOSITION:clean_effects=0
DISPOSITION:attached_pic=0
DISPOSITION:timed_thumbnails=0
TAG:encoder=LAME3.100
[/STREAM]
[STREAM]
index=0
codec_name=mp3
codec_long_name=MP3 (MPEG audio layer 3)
profile=unknown
codec_type=audio
codec_time_base=1/22050
codec_tag_string=[0][0][0][0]
codec_tag=0x0000
sample_fmt=fltp
sample_rate=22050
channels=1
channel_layout=mono
bits_per_sample=0
id=N/A
r_frame_rate=0/0
avg_frame_rate=0/0
time_base=1/14112000
start_pts=707200
start_time=0.050113
duration_ts=95846400
duration=6.791837
bit_rate=96000
max_bit_rate=N/A
bits_per_raw_sample=N/A
nb_frames=N/A
nb_read_frames=N/A
nb_read_packets=N/A
DISPOSITION:default=0
DISPOSITION:dub=0
DISPOSITION:original=0
DISPOSITION:comment=0
DISPOSITION:lyrics=0
DISPOSITION:karaoke=0
DISPOSITION:forced=0
DISPOSITION:hearing_impaired=0
DISPOSITION:visual_impaired=0
DISPOSITION:clean_effects=0
DISPOSITION:attached_pic=0
DISPOSITION:timed_thumbnails=0
TAG:encoder=LAME3.100
[/STREAM]
[STREAM]
index=0
codec_name=mp3
codec_long_name=MP3 (MPEG audio layer 3)
profile=unknown
codec_type=audio
codec_time_base=1/44100
codec_tag_string=[0][0][0][0]
codec_tag=0x0000
sample_fmt=fltp
sample_rate=44100
channels=1
channel_layout=mono
bits_per_sample=0
id=N/A
r_frame_rate=0/0
avg_frame_rate=0/0
time_base=1/14112000
start_pts=353600
start_time=0.025057
duration_ts=217128960
duration=15.386122
bit_rate=96000
max_bit_rate=N/A
bits_per_raw_sample=N/A
nb_frames=N/A
nb_read_frames=N/A
nb_read_packets=N/A
DISPOSITION:default=0
DISPOSITION:dub=0
DISPOSITION:original=0
DISPOSITION:comment=0
DISPOSITION:lyrics=0
DISPOSITION:karaoke=0
DISPOSITION:forced=0
DISPOSITION:hearing_impaired=0
DISPOSITION:visual_impaired=0
DISPOSITION:clean_effects=0
DISPOSITION:attached_pic=0
DISPOSITION:timed_thumbnails=0
TAG:encoder=LAME3.100
[/STREAM]
[STREAM]
index=0
codec_name=mp3
codec_long_name=MP3 (MPEG audio layer 3)
profile=unknown
codec_type=audio
codec_time_base=1/44100
codec_tag_string=[0][0][0][0]
codec_tag=0x0000
sample_fmt=fltp
sample_rate=44100
channels=1
channel_layout=mono
bits_per_sample=0
id=N/A
r_frame_rate=0/0
avg_frame_rate=0/0
time_base=1/14112000
start_pts=353600
start_time=0.025057
duration_ts=25067520
duration=1.776327
bit_rate=96000
max_bit_rate=N/A
bits_per_raw_sample=N/A
nb_frames=N/A
nb_read_frames=N/A
nb_read_packets=N/A
DISPOSITION:default=0
DISPOSITION:dub=0
DISPOSITION:original=0
DISPOSITION:comment=0
DISPOSITION:lyrics=0
DISPOSITION:karaoke=0
DISPOSITION:forced=0
DISPOSITION:hearing_impaired=0
DISPOSITION:visual_impaired=0
DISPOSITION:clean_effects=0
DISPOSITION:attached_pic=0
DISPOSITION:timed_thumbnails=0
TAG:encoder=LAME3.100
[/STREAM]
[STREAM]
index=0
codec_name=mp3
codec_long_name=MP3 (MPEG audio layer 3)
profile=unknown
codec_type=audio
codec_time_base=1/44100
codec_tag_string=[0][0][0][0]
codec_tag=0x0000
sample_fmt=fltp
sample_rate=44100
channels=1
channel_layout=mono
bits_per_sample=0
id=N/A
r_frame_rate=0/0
avg_frame_rate=0/0
time_base=1/14112000
start_pts=353600
start_time=0.025057
duration_ts=133816320
duration=9.482449
bit_rate=96000
max_bit_rate=N/A
bits_per_raw_sample=N/A
nb_frames=N/A
nb_read_frames=N/A
nb_read_packets=N/A
DISPOSITION:default=0
DISPOSITION:dub=0
DISPOSITION:original=0
DISPOSITION:comment=0
DISPOSITION:lyrics=0
DISPOSITION:karaoke=0
DISPOSITION:forced=0
DISPOSITION:hearing_impaired=0
DISPOSITION:visual_impaired=0
DISPOSITION:clean_effects=0
DISPOSITION:attached_pic=0
DISPOSITION:timed_thumbnails=0
TAG:encoder=LAME3.100
[/STREAM]
[STREAM]
index=0
codec_name=mp3
codec_long_name=MP3 (MPEG audio layer 3)
profile=unknown
codec_type=audio
codec_time_base=1/48000
codec_tag_string=[0][0][0][0]
codec_tag=0x0000
sample_fmt=fltp
sample_rate=48000
channels=1
channel_layout=mono
bits_per_sample=0
id=N/A
r_frame_rate=0/0
avg_frame_rate=0/0
time_base=1/14112000
start_pts=324870
start_time=0.023021
duration_ts=56560896
duration=4.008000
bit_rate=96000
max_bit_rate=N/A
bits_per_raw_sample=N/A
nb_frames=N/A
nb_read_frames=N/A
nb_read_packets=N/A
DISPOSITION:default=0
DISPOSITION:dub=0
DISPOSITION:original=0
DISPOSITION:comment=0
DISPOSITION:lyrics=0
DISPOSITION:karaoke=0
DISPOSITION:forced=0
DISPOSITION:hearing_impaired=0
DISPOSITION:visual_impaired=0
DISPOSITION:clean_effects=0
DISPOSITION:attached_pic=0
DISPOSITION:timed_thumbnails=0
TAG:encoder=LAME3.100
[/STREAM]
[STREAM]
index=0
codec_name=mp3
codec_long_name=MP3 (MPEG audio layer 3)
profile=unknown
codec_type=audio
codec_time_base=1/44100
codec_tag_string=[0][0][0][0]
codec_tag=0x0000
sample_fmt=fltp
sample_rate=44100
channels=1
channel_layout=mono
bits_per_sample=0
id=N/A
r_frame_rate=0/0
avg_frame_rate=0/0
time_base=1/14112000
start_pts=353600
start_time=0.025057
duration_ts=37969920
duration=2.690612
bit_rate=96000
max_bit_rate=N/A
bits_per_raw_sample=N/A
nb_frames=N/A
nb_read_frames=N/A
nb_read_packets=N/A
DISPOSITION:default=0
DISPOSITION:dub=0
DISPOSITION:original=0
DISPOSITION:comment=0
DISPOSITION:lyrics=0
DISPOSITION:karaoke=0
DISPOSITION:forced=0
DISPOSITION:hearing_impaired=0
DISPOSITION:visual_impaired=0
DISPOSITION:clean_effects=0
DISPOSITION:attached_pic=0
DISPOSITION:timed_thumbnails=0
TAG:encoder=LAME3.100
[/STREAM]
